<?xml version="1.0" standalone="no"?>
<!DOCTYPE svg PUBLIC "-//W3C//DTD SVG 20010904//EN"
 "http://www.w3.org/TR/2001/REC-SVG-20010904/DTD/svg10.dtd">
<svg version="1.0" xmlns="http://www.w3.org/2000/svg"
 width="1083.000000pt" height="728.000000pt" viewBox="0 0 1083.000000 728.000000"
 preserveAspectRatio="xMidYMid meet">

<g transform="translate(0.000000,728.000000) scale(0.100000,-0.100000)"
fill="#000000" stroke="none">
<path d="M6062 6773 c-29 -4 -33 -8 -29 -26 3 -12 9 -52 12 -89 7 -67 7 -68
-16 -68 -19 0 -31 13 -59 66 -19 36 -38 68 -42 70 -6 4 -76 -31 -106 -52 -2
-1 13 -34 33 -74 28 -56 34 -75 24 -86 -9 -11 -22 -4 -74 41 l-62 55 -37 -47
-36 -47 51 -52 c37 -37 50 -57 45 -69 -6 -15 -16 -17 -84 -11 l-78 7 -12 -51
c-18 -78 -19 -77 53 -85 63 -6 65 -7 65 -35 0 -36 -1 -36 -77 -45 l-61 -7 -7
31 c-4 17 -10 31 -13 31 -4 0 -31 -9 -61 -21 -40 -15 -57 -17 -65 -9 -8 9 2
23 38 54 l48 43 -32 36 -32 37 -51 -44 c-70 -59 -83 -51 -47 30 l29 64 -39 20
c-22 11 -45 20 -53 20 -7 0 -26 -27 -42 -60 -16 -33 -32 -60 -37 -60 -4 0 -8
34 -8 75 l0 75 -60 0 -60 0 0 -70 c0 -89 -18 -93 -51 -12 -12 31 -24 59 -25
61 -6 7 -94 -30 -94 -40 0 -5 9 -32 20 -60 18 -49 19 -69 2 -69 -4 0 -25 23
-46 51 l-38 51 -39 -38 -38 -38 35 -43 c49 -59 41 -77 -23 -58 -26 8 -53 15
-59 15 -13 0 -56 -98 -46 -103 4 -3 25 -8 47 -12 51 -9 54 -11 48 -35 -5 -17
-14 -20 -59 -20 l-54 0 0 -54 0 -55 52 -3 c28 -2 53 -8 55 -14 2 -6 -15 -19
-37 -29 -23 -10 -43 -22 -46 -27 -8 -13 27 -98 40 -98 6 0 30 11 54 25 37 21
44 22 49 9 3 -10 -9 -30 -33 -55 l-38 -39 36 -37 36 -36 45 37 c48 39 74 47
62 19 -18 -46 -37 -104 -34 -107 2 -2 25 -13 51 -24 l46 -20 22 59 c31 81 50
78 50 -6 l0 -65 49 0 48 0 9 63 c11 76 32 83 51 17 22 -75 18 -72 65 -54 24
10 47 20 51 24 5 4 1 33 -8 64 -9 32 -14 60 -11 64 4 3 27 -14 51 -38 l45 -44
34 33 35 34 -35 42 c-29 36 -43 65 -31 65 2 0 29 -9 59 -19 l55 -19 22 45 c12
24 19 48 17 52 -3 4 -26 16 -51 25 -66 26 -60 46 15 46 l60 0 0 45 c0 37 3 45
19 45 10 0 38 3 63 6 39 6 46 4 50 -13 4 -16 -7 -28 -53 -56 l-58 -37 32 -55
c18 -30 36 -55 40 -55 5 0 31 18 60 39 38 30 55 37 64 29 19 -16 17 -24 -28
-84 -23 -30 -40 -56 -38 -57 2 -2 25 -20 50 -40 l47 -37 53 60 c42 46 57 58
69 50 13 -8 13 -17 -3 -77 -9 -37 -17 -71 -17 -75 0 -7 94 -38 116 -38 7 0 20
32 30 75 15 65 21 75 40 75 20 0 22 -7 29 -75 4 -41 11 -78 16 -81 6 -3 32 -3
59 1 l50 7 0 83 c0 76 2 84 21 90 25 8 20 15 54 -67 15 -38 31 -68 34 -68 11
0 111 55 111 62 0 3 -14 36 -30 73 -23 52 -28 71 -19 81 9 11 22 4 71 -36 l60
-51 34 38 c18 21 33 42 34 48 0 5 -23 33 -52 62 -65 66 -58 81 28 63 32 -7 64
-14 70 -17 12 -4 44 75 44 107 0 13 -17 22 -62 35 -78 21 -77 21 -71 45 4 16
17 20 74 26 l69 7 0 58 0 58 -82 3 c-108 4 -114 21 -29 73 34 20 61 41 61 46
0 11 -28 68 -42 86 -7 9 -27 2 -78 -25 -65 -34 -71 -36 -86 -20 -16 16 -14 21
37 79 l53 62 -38 33 c-22 19 -43 34 -47 34 -4 0 -30 -27 -59 -60 -55 -63 -57
-65 -78 -51 -11 7 -9 24 11 90 14 44 22 83 19 85 -17 9 -114 38 -117 34 -2 -2
-17 -39 -33 -83 -35 -96 -54 -103 -65 -25 -18 129 -14 120 -55 118 -20 0 -52
-3 -70 -5z m82 -80 c15 -109 18 -123 31 -123 7 0 26 -3 43 -6 29 -6 30 -5 51
57 32 95 42 108 69 98 27 -10 27 -12 2 -84 -20 -57 -24 -119 -8 -109 5 3 23 0
42 -7 32 -12 34 -11 72 31 21 23 43 49 49 57 10 13 45 9 45 -6 0 -13 -61 -76
-71 -73 -6 1 -8 -2 -5 -7 3 -5 -1 -14 -9 -21 -22 -18 -19 -26 22 -65 l37 -35
54 30 c30 16 59 27 63 24 5 -3 9 0 9 6 0 6 5 8 10 5 6 -4 8 -10 5 -15 -3 -4 0
-10 7 -12 6 -2 -19 -23 -56 -47 -52 -33 -66 -46 -61 -59 4 -9 12 -29 17 -44
10 -27 12 -28 84 -28 67 0 74 -2 74 -20 0 -21 -9 -24 -92 -35 l-46 -6 -4 -45
c-2 -25 -1 -49 2 -53 3 -4 31 -15 64 -24 32 -9 60 -18 62 -20 2 -1 0 -13 -3
-26 -6 -24 -22 -25 -120 -5 -28 5 -33 3 -47 -24 -9 -17 -16 -35 -16 -41 0 -5
23 -31 51 -58 48 -46 49 -49 32 -65 -17 -16 -21 -14 -68 28 -27 24 -53 44 -57
44 -4 0 -22 -13 -40 -29 l-32 -28 27 -60 c32 -73 33 -75 6 -91 -26 -16 -30
-12 -59 61 -25 61 -31 64 -90 43 l-35 -13 -5 -79 c-4 -63 -8 -79 -22 -82 -17
-3 -22 10 -33 106 l-7 52 -53 0 -52 0 -7 -37 c-3 -21 -11 -55 -16 -76 -10 -34
-13 -37 -38 -31 -15 4 -28 7 -29 8 -1 1 6 35 17 76 11 41 18 75 17 75 -1 1
-21 9 -44 19 l-41 18 -39 -42 c-21 -23 -39 -46 -41 -51 -6 -14 -38 -11 -51 5
-10 11 -4 25 28 68 23 29 41 55 41 58 0 3 -16 22 -36 42 l-35 38 -52 -40 -52
-40 -18 22 c-18 21 -17 22 10 44 15 13 33 23 39 24 6 0 19 9 30 21 18 20 18
21 -1 57 -20 37 -20 37 -79 33 -60 -3 -76 5 -76 40 0 12 14 18 62 23 34 3 62
7 64 9 1 1 5 29 9 63 l7 61 -32 7 c-18 3 -48 6 -67 6 -33 0 -35 1 -28 27 4 16
9 30 11 32 2 2 34 0 70 -6 l66 -9 26 38 25 39 -51 52 c-47 48 -51 55 -39 72
13 16 16 17 35 3 12 -8 19 -18 15 -21 -3 -4 -2 -7 3 -7 5 0 22 -11 38 -25 36
-31 43 -31 84 3 l34 28 -37 69 c-35 65 -36 69 -19 82 10 7 20 13 23 13 3 0 23
-31 43 -69 l38 -68 51 10 51 10 -6 71 c-4 39 -9 79 -12 89 -4 14 1 17 29 17
34 0 35 -1 41 -47z m-982 -314 l3 -72 36 -4 c34 -3 36 -1 59 47 28 60 43 75
58 58 7 -9 3 -27 -14 -62 -13 -28 -24 -55 -24 -61 0 -7 15 -20 34 -30 l34 -19
46 38 c62 50 76 37 19 -18 l-46 -43 22 -32 c26 -35 32 -37 91 -16 50 18 60 18
60 4 0 -5 -24 -21 -54 -35 l-54 -24 10 -39 c10 -40 30 -51 94 -51 15 0 24 -6
24 -15 0 -12 -13 -15 -55 -15 -49 0 -55 -3 -60 -22 -12 -60 -11 -62 38 -86 26
-12 47 -27 47 -33 0 -18 -26 -20 -63 -4 -50 21 -60 19 -79 -12 -16 -27 -16
-29 17 -75 45 -62 26 -77 -24 -19 l-37 43 -32 -19 c-36 -20 -37 -25 -21 -90
10 -37 9 -47 -2 -54 -11 -6 -18 4 -32 46 -20 58 -30 63 -84 49 -19 -5 -23 -16
-29 -64 -4 -36 -12 -61 -20 -64 -11 -4 -14 8 -14 58 l0 64 -41 7 c-47 8 -51 6
-74 -57 -15 -41 -20 -46 -36 -38 -17 10 -17 12 1 53 26 57 25 69 -11 90 l-31
17 -41 -35 c-44 -38 -52 -41 -63 -24 -3 6 11 28 31 49 l38 39 -24 35 c-13 20
-28 36 -32 36 -4 0 -25 -9 -47 -20 -47 -24 -50 -24 -50 -5 0 8 20 25 44 36
l43 22 -10 38 c-8 34 -13 39 -38 39 -38 0 -82 18 -74 30 3 5 28 10 54 10 l47
0 13 51 c15 59 12 64 -51 74 -39 7 -43 11 -30 32 5 8 20 8 60 -2 53 -14 54
-14 77 13 28 31 29 36 12 54 -42 44 -57 71 -46 85 10 11 14 10 26 -7 8 -11 11
-26 7 -33 -4 -6 -3 -9 1 -4 5 4 19 -3 32 -15 22 -21 24 -21 58 -5 19 9 35 21
35 25 0 5 -9 34 -19 65 -19 55 -19 57 -1 57 13 0 23 -14 35 -51 19 -57 30 -64
80 -55 l35 7 0 64 c0 58 2 65 20 65 17 0 19 -8 22 -71z m418 -296 c0 -28 -3
-34 -16 -29 -9 3 -31 6 -50 6 -48 0 -44 26 8 50 23 10 46 16 50 14 4 -3 8 -21
8 -41z"/>
<path d="M6116 6507 c-31 -47 14 -98 68 -77 29 10 39 52 19 80 -20 28 -68 27
-87 -3z m69 -32 c0 -22 -31 -33 -47 -17 -17 17 -1 44 24 40 15 -2 23 -10 23
-23z"/>
<path d="M5922 6438 c-40 -40 13 -115 63 -88 32 17 38 36 22 68 -14 30 -63 42
-85 20z m65 -52 c-8 -21 -43 -20 -51 1 -10 26 23 48 42 29 8 -8 12 -22 9 -30z"/>
<path d="M6336 6434 c-19 -18 -21 -57 -4 -83 9 -15 17 -17 42 -10 38 11 56 33
49 62 -11 44 -58 61 -87 31z m59 -39 c0 -22 -31 -33 -47 -17 -17 17 -1 44 24
40 15 -2 23 -10 23 -23z"/>
<path d="M6131 6299 c-42 -13 -65 -35 -81 -80 -37 -104 60 -203 164 -167 49
16 77 53 83 111 11 95 -72 163 -166 136z m83 -40 c62 -29 66 -133 6 -164 -42
-22 -74 -19 -109 11 -43 36 -44 93 -2 135 31 31 64 36 105 18z"/>
<path d="M5836 6234 c-33 -33 -7 -94 41 -94 25 0 53 30 53 57 0 44 -63 69 -94
37z m62 -37 c4 -20 -25 -34 -40 -19 -15 15 -1 44 19 40 10 -2 19 -11 21 -21z"/>
<path d="M6426 6234 c-18 -18 -20 -47 -6 -75 15 -27 64 -25 84 3 21 30 20 44
-4 68 -24 24 -53 26 -74 4z m59 -39 c0 -23 -34 -33 -45 -14 -13 20 1 40 24 37
13 -2 21 -10 21 -23z"/>
<path d="M5933 6029 c-25 -9 -37 -38 -26 -65 9 -25 23 -34 54 -34 32 0 49 17
49 51 0 39 -37 63 -77 48z m46 -32 c8 -10 7 -19 -4 -33 -13 -18 -15 -18 -31
-2 -18 18 -13 48 9 48 8 0 20 -6 26 -13z"/>
<path d="M6335 6031 c3 -2 0 -10 -6 -17 -6 -7 -8 -26 -4 -43 11 -51 88 -49
101 3 3 13 1 34 -6 45 -9 17 -19 21 -50 19 -22 -1 -37 -4 -35 -7z m63 -45 c-2
-13 -10 -21 -23 -21 -23 0 -33 34 -14 45 20 13 40 -1 37 -24z"/>
<path d="M6136 5937 c-28 -20 -25 -66 6 -90 25 -19 28 -19 52 -3 29 19 36 66
12 85 -21 18 -52 21 -70 8z m54 -32 c10 -12 10 -18 0 -30 -7 -8 -18 -15 -26
-15 -19 0 -29 41 -13 51 19 12 25 11 39 -6z"/>
<path d="M5122 6278 c-7 -7 -12 -21 -12 -33 0 -12 5 -26 12 -33 7 -7 21 -12
33 -12 12 0 26 5 33 12 7 7 12 21 12 33 0 12 -5 26 -12 33 -7 7 -21 12 -33 12
-12 0 -26 -5 -33 -12z m48 -34 c0 -8 -7 -14 -15 -14 -15 0 -21 21 -9 33 10 9
24 -2 24 -19z"/>
<path d="M4962 6238 c-20 -20 -15 -66 8 -73 47 -15 82 23 60 65 -12 22 -49 27
-68 8z m48 -33 c0 -8 -6 -15 -14 -15 -17 0 -28 14 -19 24 12 12 33 6 33 -9z"/>
<path d="M5279 6189 c-23 -23 -24 -33 -3 -64 15 -23 18 -24 44 -10 33 17 44
40 30 64 -14 28 -48 33 -71 10z m47 -20 c10 -17 -13 -36 -27 -22 -12 12 -4 33
11 33 5 0 12 -5 16 -11z"/>
<path d="M5079 6105 c-35 -19 -61 -74 -53 -113 9 -46 57 -87 103 -87 97 0 147
114 79 182 -30 29 -94 38 -129 18z m101 -45 c43 -43 11 -120 -49 -120 -32 0
-71 39 -71 70 0 10 9 29 21 44 25 32 70 35 99 6z"/>
<path d="M4867 6093 c-15 -15 -6 -63 13 -73 43 -23 83 17 60 60 -10 19 -58 28
-73 13z m53 -39 c0 -14 -21 -19 -33 -7 -9 9 13 34 24 27 5 -3 9 -12 9 -20z"/>
<path d="M5329 6024 c-19 -20 -21 -27 -11 -49 9 -19 19 -25 41 -25 53 0 65 66
16 88 -19 9 -27 7 -46 -14z m51 -29 c0 -8 -9 -15 -20 -15 -11 0 -20 7 -20 15
0 8 9 15 20 15 11 0 20 -7 20 -15z"/>
<path d="M4918 5919 c-21 -12 -24 -49 -6 -67 17 -17 65 -15 72 4 11 29 6 53
-13 64 -24 12 -31 12 -53 -1z m42 -39 c0 -11 -7 -20 -15 -20 -8 0 -15 9 -15
20 0 11 7 20 15 20 8 0 15 -9 15 -20z"/>
<path d="M5244 5882 c-18 -12 -24 -42 -14 -63 21 -39 90 -16 90 30 0 28 -50
51 -76 33z m44 -39 c-2 -10 -10 -18 -18 -18 -8 0 -16 8 -18 18 -2 12 3 17 18
17 15 0 20 -5 18 -17z"/>
<path d="M5062 5818 c-27 -27 -1 -78 38 -78 29 0 54 43 40 69 -12 24 -58 29
-78 9z m54 -19 c10 -17 -13 -36 -27 -22 -12 12 -4 33 11 33 5 0 12 -5 16 -11z"/>
<path d="M4520 5493 c0 -5 0 -426 0 -938 l-1 -930 526 -3 525 -2 0 940 0 940
-525 0 c-289 0 -525 -3 -525 -7z m980 -40 c0 -5 -99 -81 -220 -170 l-219 -162
-241 165 c-132 91 -240 167 -240 170 0 2 207 4 460 4 253 0 460 -3 460 -7z
m20 -859 c0 -779 -1 -827 -17 -840 -17 -13 -17 -14 2 -8 20 5 20 5 1 -10 -22
-18 -38 -12 -29 9 3 10 1 13 -9 10 -16 -6 -106 49 -114 70 -4 8 -13 15 -21 15
-8 0 -27 14 -43 31 -15 18 -37 32 -48 33 -11 0 -41 15 -66 33 -33 24 -44 37
-40 50 4 11 3 14 -3 7 -5 -7 -16 -8 -31 -3 l-22 9 0 550 c1 304 5 550 10 550
4 0 11 -6 13 -12 3 -7 6 0 6 16 1 21 5 27 17 22 8 -3 12 -2 9 4 -6 10 38 43
64 47 9 1 17 7 19 12 2 6 13 11 23 11 11 0 17 5 14 10 -4 6 -11 7 -17 4 -7 -4
-8 -2 -4 4 5 9 13 9 26 2 15 -8 18 -7 15 2 -2 7 16 29 41 48 25 19 53 41 61
49 12 11 16 12 23 2 5 -10 9 -10 14 -2 4 6 12 9 17 6 5 -4 9 -1 9 4 0 6 -5 11
-10 11 -6 0 -5 6 2 14 7 8 17 12 21 9 12 -7 57 18 57 30 0 6 -9 2 -19 -7 -15
-14 -21 -15 -27 -4 -4 7 -4 10 0 6 4 -3 16 2 27 13 10 10 21 19 24 19 2 0 4
-372 5 -826z m-226 -773 l219 -151 -469 0 -469 0 45 29 c25 16 133 85 240 155
107 69 200 124 205 122 6 -2 109 -72 229 -155z m-33 62 c13 -16 12 -17 -3 -4
-10 7 -18 15 -18 17 0 8 8 3 21 -13z"/>
<path d="M5373 5303 c-24 -9 -13 -20 17 -18 28 2 69 25 44 25 -5 0 -16 -6 -22
-12 -9 -9 -15 -10 -20 -2 -4 6 -13 9 -19 7z"/>
<path d="M5315 5240 c-3 -5 -2 -10 4 -10 5 0 13 5 16 10 3 6 2 10 -4 10 -5 0
-13 -4 -16 -10z"/>
<path d="M5343 5223 c-15 -5 -17 -23 -4 -23 5 0 11 7 15 15 3 8 4 15 3 14 -1
0 -8 -3 -14 -6z"/>
<path d="M5166 5155 c-10 -8 -15 -18 -11 -24 14 -23 52 -1 39 22 -8 13 -12 13
-28 2z m19 -15 c-3 -5 -11 -10 -16 -10 -6 0 -7 5 -4 10 3 6 11 10 16 10 6 0 7
-4 4 -10z"/>
<path d="M5093 4575 c-1 -269 1 -498 5 -507 6 -16 6 629 -1 887 -1 61 -3 -110
-4 -380z"/>
<path d="M5169 3987 c8 -9 11 -21 7 -24 -4 -4 -11 -1 -16 7 -6 8 -10 10 -10 4
0 -7 10 -18 23 -27 22 -14 23 -14 22 13 0 16 -2 27 -4 24 -2 -2 -11 2 -20 9
-14 11 -14 10 -2 -6z"/>
<path d="M5288 3903 c7 -3 16 -2 19 1 4 3 -2 6 -13 5 -11 0 -14 -3 -6 -6z"/>
<path d="M5310 3881 c0 -6 5 -13 10 -16 6 -3 10 1 10 9 0 9 -4 16 -10 16 -5 0
-10 -4 -10 -9z"/>
<path d="M5365 3830 c-3 -5 -1 -10 4 -10 6 0 11 5 11 10 0 6 -2 10 -4 10 -3 0
-8 -4 -11 -10z"/>
<path d="M5415 3790 c3 -5 11 -10 16 -10 6 0 7 5 4 10 -3 6 -11 10 -16 10 -6
0 -7 -4 -4 -10z"/>
<path d="M5650 4527 l0 -974 -157 -6 c-87 -4 -344 -7 -571 -7 l-412 0 5 -377
c3 -208 8 -434 11 -502 l6 -124 1081 7 c595 4 1082 8 1084 9 1 1 -1 665 -4
1475 l-6 1472 -519 0 -518 0 0 -973z m960 924 c0 -15 -403 -296 -425 -296 -11
0 -121 65 -244 145 l-224 145 439 5 c241 3 442 6 447 8 4 1 7 -2 7 -7z m20
-41 c-10 -6 -11 -10 -3 -10 18 0 19 -2706 1 -2728 -10 -12 -10 -14 0 -8 6 4
12 2 12 -3 0 -13 -10 -14 -30 -1 -12 7 -11 12 5 32 l20 23 -22 -19 c-20 -16
-24 -17 -37 -3 -8 8 -12 17 -9 21 4 3 -1 6 -10 6 -11 0 -14 5 -11 15 4 10 2
13 -8 10 -8 -3 -29 10 -48 30 -26 27 -31 38 -22 47 7 7 12 16 12 22 0 5 -6 2
-14 -9 -13 -18 -14 -18 -39 1 -25 18 -39 43 -17 29 5 -3 18 -1 27 5 16 10 15
10 -4 5 -14 -4 -25 0 -33 12 -11 16 -11 17 -6 1 8 -28 -2 -22 -56 32 -28 28
-45 50 -39 50 6 0 11 5 11 11 0 6 -7 8 -15 5 -20 -7 -54 14 -48 30 2 6 -1 15
-8 20 -8 5 -10 3 -4 -6 6 -9 4 -11 -5 -5 -10 6 -12 52 -8 211 3 112 1 204 -3
204 -4 0 -7 307 -6 683 1 375 -2 750 -7 834 -7 127 -6 155 6 167 10 9 20 11
29 5 19 -12 38 -11 19 1 -13 9 -11 13 10 30 56 45 65 50 78 45 9 -3 12 0 9 8
-3 7 3 13 14 14 10 1 17 -4 15 -10 -1 -7 -1 -8 2 -3 2 4 8 2 13 -5 6 -9 9 -10
9 -2 0 6 -7 18 -15 27 -13 13 -13 15 4 21 10 3 26 14 36 25 10 11 25 20 34 20
9 0 22 9 29 20 7 12 23 20 40 20 21 0 24 2 12 10 -13 9 -13 10 0 11 8 1 18 1
23 0 4 0 7 5 7 13 0 14 37 45 55 45 6 1 3 -4 -5 -9z m-1833 -2162 l223 -223
-220 -220 c-120 -120 -221 -217 -223 -215 -8 9 -18 895 -10 887 4 -4 108 -107
230 -229z m803 -246 c0 -4 129 -6 286 -3 240 3 285 1 278 -10 -6 -12 -5 -12 8
-1 11 9 18 10 23 2 3 -6 11 -7 17 -4 7 4 8 2 4 -5 -4 -6 -11 -9 -15 -7 -4 3
-13 0 -21 -5 -10 -6 -3 -7 21 -4 28 5 38 2 43 -10 3 -9 3 -22 -1 -28 -5 -8 -2
-8 9 0 15 13 28 8 28 -9 0 -5 -4 -7 -9 -4 -5 3 -14 -1 -21 -9 -10 -12 -8 -13
11 -10 13 3 27 -1 32 -8 6 -8 7 -5 3 7 -7 19 -6 19 13 2 22 -20 33 -53 20 -62
-5 -3 -7 -10 -3 -15 10 -16 23 0 19 24 -4 21 -4 21 15 -3 10 -13 17 -27 14
-31 -2 -4 4 -6 14 -5 10 0 17 -6 17 -16 0 -19 34 -60 45 -53 12 7 150 -111
150 -128 0 -3 -330 -6 -732 -7 -403 -1 -753 -2 -778 -3 -25 -1 -134 0 -243 1
l-198 2 23 31 c13 17 41 44 62 60 22 16 36 29 31 29 -5 0 13 20 40 45 28 25
55 45 60 45 6 0 3 -5 -5 -10 -8 -5 -10 -10 -4 -10 6 0 18 8 25 17 10 11 10 14
2 9 -23 -13 -14 8 18 42 31 34 49 41 49 20 0 -9 4 -8 10 2 5 8 10 11 10 6 0
-12 29 26 30 38 0 6 -9 0 -21 -13 -12 -12 -24 -20 -27 -17 -10 10 41 57 56 51
9 -3 12 0 9 9 -9 22 14 36 63 38 l45 1 -45 7 c-25 4 82 8 238 8 155 1 282 -1
282 -6z m834 -238 c3 -8 10 -12 16 -9 5 3 10 4 10 1 0 -15 -20 -13 -35 4 -10
11 -13 20 -8 20 6 0 14 -7 17 -16z"/>
<path d="M6609 5398 c-8 -27 -5 -36 9 -30 10 4 12 7 4 10 -7 2 -10 8 -6 13 3
5 3 9 0 9 -3 0 -6 -1 -7 -2z"/>
<path d="M6520 5296 c0 -2 7 -7 16 -10 8 -3 12 -2 9 4 -6 10 -25 14 -25 6z"/>
<path d="M6471 5274 c0 -11 3 -14 6 -6 3 7 2 16 -1 19 -3 4 -6 -2 -5 -13z"/>
<path d="M6426 5254 c-17 -12 -17 -14 -4 -14 9 0 20 5 23 11 11 17 2 18 -19 3z"/>
<path d="M6440 5220 c-13 -8 -13 -10 2 -10 9 0 20 5 23 10 8 13 -5 13 -25 0z"/>
<path d="M6302 5156 c7 -8 15 -12 17 -11 5 6 -10 25 -20 25 -5 0 -4 -6 3 -14z"/>
<path d="M6270 5145 c0 -2 10 -10 23 -16 20 -11 21 -11 8 4 -13 16 -31 23 -31
12z"/>
<path d="M6233 4440 c0 -25 2 -35 4 -22 2 12 2 32 0 45 -2 12 -4 2 -4 -23z"/>
<path d="M6223 4200 c0 -25 2 -35 4 -22 2 12 2 32 0 45 -2 12 -4 2 -4 -23z"/>
<path d="M6223 3920 c0 -47 2 -66 4 -42 2 23 2 61 0 85 -2 23 -4 4 -4 -43z"/>
<path d="M6223 3640 c0 -25 2 -35 4 -22 2 12 2 32 0 45 -2 12 -4 2 -4 -23z"/>
<path d="M6233 3320 c0 -25 2 -35 4 -22 2 12 2 32 0 45 -2 12 -4 2 -4 -23z"/>
<path d="M6305 3020 c3 -5 8 -10 11 -10 2 0 4 5 4 10 0 6 -5 10 -11 10 -5 0
-7 -4 -4 -10z"/>
<path d="M6355 2930 c10 -11 23 -20 28 -20 6 0 2 9 -8 20 -10 11 -23 20 -28
20 -6 0 -2 -9 8 -20z"/>
<path d="M6454 2858 l-19 -23 23 19 c21 18 27 26 19 26 -2 0 -12 -10 -23 -22z"/>
<path d="M5298 2993 c12 -2 32 -2 45 0 12 2 2 4 -23 4 -25 0 -35 -2 -22 -4z"/>
<path d="M5458 2993 c12 -2 32 -2 45 0 12 2 2 4 -23 4 -25 0 -35 -2 -22 -4z"/>
<path d="M5718 2983 c23 -2 61 -2 85 0 23 2 4 4 -43 4 -47 0 -66 -2 -42 -4z"/>
<path d="M5025 2971 c-3 -5 -1 -12 5 -16 5 -3 10 1 10 9 0 18 -6 21 -15 7z"/>
<path d="M5458 2963 c12 -2 32 -2 45 0 12 2 2 4 -23 4 -25 0 -35 -2 -22 -4z"/>
<path d="M5898 2963 c34 -2 90 -2 125 0 34 2 6 3 -63 3 -69 0 -97 -1 -62 -3z"/>
<path d="M6118 2963 c6 -2 18 -2 25 0 6 3 1 5 -13 5 -14 0 -19 -2 -12 -5z"/>
<path d="M5011 2904 c-12 -27 -11 -28 4 -12 10 9 16 21 13 28 -2 7 -10 -1 -17
-16z"/>
<path d="M4912 2850 c-7 -11 -9 -20 -4 -20 4 0 13 9 20 20 7 11 9 20 4 20 -4
0 -13 -9 -20 -20z"/>
<path d="M4940 2835 c0 -8 -4 -15 -10 -15 -5 0 -10 -5 -10 -11 0 -14 18 -2 30
22 7 13 7 19 0 19 -5 0 -10 -7 -10 -15z"/>
<path d="M6407 2729 c7 -7 15 -10 18 -7 3 3 -2 9 -12 12 -14 6 -15 5 -6 -5z"/>
<path d="M4755 2680 c-3 -5 -1 -10 4 -10 6 0 11 5 11 10 0 6 -2 10 -4 10 -3 0
-8 -4 -11 -10z"/>
<path d="M4898 2633 c12 -2 32 -2 45 0 12 2 2 4 -23 4 -25 0 -35 -2 -22 -4z"/>
<path d="M5165 2620 c28 -5 66 -8 85 -8 28 1 25 2 -15 8 -27 5 -66 8 -85 8
-28 -1 -25 -2 15 -8z"/>
<path d="M5878 2623 c23 -2 61 -2 85 0 23 2 4 4 -43 4 -47 0 -66 -2 -42 -4z"/>
<path d="M4881 2616 c2 -2 58 -6 124 -8 75 -4 101 -3 70 2 -51 8 -202 13 -194
6z"/>
<path d="M5378 2613 c12 -2 32 -2 45 0 12 2 2 4 -23 4 -25 0 -35 -2 -22 -4z"/>
<path d="M830 1677 l0 -347 50 0 50 0 0 228 0 227 242 -237 c134 -131 246
-237 251 -238 4 0 7 155 7 345 l0 345 -50 0 -50 0 0 -232 0 -233 -147 145
c-82 80 -194 190 -250 245 l-103 100 0 -348z"/>
<path d="M3073 1999 c-48 -14 -99 -68 -113 -118 -28 -103 20 -176 165 -251 48
-25 96 -56 106 -69 21 -27 25 -88 6 -112 -47 -61 -176 -46 -208 25 -11 23 -12
23 -50 8 -43 -16 -47 -28 -24 -71 58 -113 243 -137 345 -45 45 40 62 84 62
154 -1 88 -35 127 -167 193 -90 45 -125 79 -125 123 0 81 97 110 167 50 l28
-24 37 19 c21 11 38 24 38 30 0 22 -67 77 -105 88 -47 13 -117 13 -162 0z"/>
<path d="M4954 1954 c-15 -32 -85 -183 -156 -334 -70 -151 -128 -278 -128
-282 0 -4 24 -8 53 -8 l54 0 38 85 38 86 134 -3 135 -3 36 -82 35 -83 54 0
c29 0 53 3 53 8 0 11 -300 656 -311 666 -5 6 -19 -14 -35 -50z m87 -274 l38
-85 -86 -3 c-47 -2 -88 -1 -91 2 -2 3 14 48 37 99 22 52 41 101 42 108 0 8 5
3 12 -11 6 -14 28 -63 48 -110z"/>
<path d="M5479 2000 c-123 -37 -167 -195 -79 -285 17 -18 73 -55 124 -83 97
-54 119 -73 130 -109 10 -30 -19 -87 -50 -102 -60 -27 -142 -4 -169 48 l-15
30 -40 -17 c-44 -19 -47 -29 -25 -71 57 -110 241 -137 341 -49 59 52 83 129
63 201 -15 57 -52 91 -147 141 -109 56 -142 87 -142 132 0 81 97 110 167 50
l28 -24 37 19 c21 11 38 26 38 33 0 22 -66 74 -107 85 -44 12 -116 13 -154 1z"/>
<path d="M7319 1680 c-85 -181 -157 -330 -161 -330 -4 0 -4 16 -1 35 l6 34
-124 3 -124 3 -3 288 -2 288 -53 -3 -52 -3 -3 -332 -2 -333 234 0 234 0 38 85
38 86 134 -3 134 -3 37 -82 36 -83 58 0 c32 0 56 3 54 8 -14 21 -307 656 -307
663 0 36 -37 -33 -171 -321z m171 106 c0 -7 18 -52 40 -100 22 -47 40 -89 40
-91 0 -3 -41 -5 -91 -5 -103 0 -101 -3 -54 90 13 25 28 64 35 87 12 39 30 50
30 19z"/>
<path d="M9835 1837 c-43 -94 -108 -233 -143 -307 -35 -74 -70 -150 -77 -167
l-14 -33 57 0 57 0 35 83 35 82 135 3 135 3 36 -83 36 -83 57 -3 c33 -2 57 1
55 6 -18 47 -314 672 -318 672 -3 0 -42 -78 -86 -173z m137 -145 c22 -51 38
-95 36 -98 -3 -3 -44 -4 -91 -2 l-85 3 46 108 c26 59 49 102 51 95 2 -7 21
-55 43 -106z"/>
<path d="M570 1998 c0 -2 -1 -153 -3 -336 l-2 -332 53 0 52 0 0 335 0 335 -50
0 c-27 0 -50 -1 -50 -2z"/>
<path d="M1588 1994 c-5 -4 -8 -156 -8 -337 l0 -329 173 4 c165 3 174 4 229
31 98 48 152 134 165 261 7 70 -12 169 -43 223 -33 56 -98 111 -155 127 -52
16 -350 32 -361 20z m296 -104 c110 -25 173 -146 148 -282 -23 -123 -87 -175
-222 -179 -41 -1 -85 -1 -97 -1 l-23 2 0 235 0 235 78 0 c42 0 95 -5 116 -10z"/>
<path d="M2274 1985 c-4 -8 -4 -122 -2 -252 3 -232 4 -239 30 -295 19 -41 38
-64 67 -82 115 -73 320 -54 396 35 47 56 55 111 55 371 l0 239 -52 -3 -53 -3
-5 -247 c-5 -229 -6 -249 -26 -275 -29 -40 -80 -63 -139 -63 -70 0 -115 25
-142 80 -22 42 -23 55 -23 277 l0 233 -50 0 c-36 0 -52 -4 -56 -15z"/>
<path d="M3418 1968 c-7 -66 -4 -69 75 -68 40 1 78 1 85 1 9 -1 12 -65 12
-286 l0 -285 55 0 55 0 2 286 3 286 85 2 85 1 3 48 3 47 -229 0 -230 0 -4 -32z"/>
<path d="M3960 1667 l0 -337 50 0 50 0 0 144 c0 80 3 147 8 150 4 2 57 -63
117 -145 l110 -148 58 -1 c31 0 57 2 57 5 0 3 -47 68 -105 145 -58 77 -105
143 -105 148 0 5 12 12 28 15 68 14 112 79 112 166 0 84 -33 140 -98 168 -18
7 -87 16 -157 20 l-125 6 0 -336z m251 204 c21 -25 25 -90 9 -121 -12 -22 -61
-40 -111 -40 l-39 0 0 96 0 96 61 -4 c49 -4 66 -9 80 -27z"/>
<path d="M4490 1666 l0 -336 55 0 55 0 -2 333 -3 332 -52 3 -53 3 0 -335z"/>
<path d="M6290 1753 c0 -137 -3 -265 -7 -286 -8 -53 -39 -67 -90 -43 l-36 17
-31 -31 -31 -31 34 -29 c54 -46 150 -52 209 -14 48 31 52 61 52 374 l0 290
-50 0 -50 0 0 -247z"/>
<path d="M6540 1666 l0 -336 55 0 55 0 -2 333 -3 332 -52 3 -53 3 0 -335z"/>
<path d="M8150 1665 l0 -335 175 0 175 0 0 45 0 44 -122 3 -123 3 -2 275 c-2
151 -3 281 -3 288 0 8 -17 12 -50 12 l-50 0 0 -335z"/>
<path d="M8472 1953 l3 -48 83 -3 82 -3 0 -284 0 -285 55 0 55 0 2 287 3 287
67 -3 c98 -3 108 1 108 55 l0 44 -231 0 -230 0 3 -47z"/>
<path d="M9018 1994 c-5 -4 -8 -156 -8 -337 l0 -329 173 4 c154 3 178 6 225
27 95 43 156 137 169 265 7 64 -11 164 -38 217 -26 52 -104 117 -159 133 -53
16 -351 33 -362 20z m337 -116 c88 -46 131 -161 106 -279 -30 -138 -114 -182
-323 -170 -17 1 -18 19 -18 237 l0 237 103 -5 c65 -3 113 -10 132 -20z"/>
<path d="M2936 822 c-27 -119 -51 -223 -54 -229 -3 -9 7 -13 30 -13 l35 0 26
118 c14 64 28 126 30 137 2 13 27 -27 72 -117 39 -76 72 -138 75 -138 3 0 36
60 72 134 61 125 78 148 78 107 0 -9 12 -67 26 -128 l26 -113 35 0 c28 0 33 3
29 18 -3 9 -26 107 -52 217 -25 110 -50 206 -53 213 -5 8 -36 -49 -82 -147
-41 -88 -77 -161 -80 -161 -4 0 -13 15 -20 33 -27 66 -134 287 -139 287 -3 0
-27 -98 -54 -218z"/>
<path d="M4175 865 c-97 -201 -125 -262 -125 -276 0 -5 15 -9 34 -9 31 0 35 4
60 60 l27 60 92 0 92 0 27 -60 c25 -57 28 -60 62 -60 20 0 36 2 36 5 0 7 -148
323 -188 400 l-30 60 -87 -180z m134 -63 l21 -42 -65 0 -65 0 16 38 c9 20 23
54 32 76 l16 38 12 -34 c6 -19 21 -53 33 -76z"/>
<path d="M4846 832 c-27 -114 -50 -217 -53 -230 -5 -21 -3 -23 28 -20 l34 3
30 135 29 135 72 -145 72 -145 71 145 c39 80 71 141 71 137 0 -9 38 -181 51
-229 8 -33 14 -38 39 -38 19 0 30 5 30 14 0 18 -100 439 -105 445 -3 2 -28
-48 -57 -110 -29 -63 -64 -137 -78 -166 l-25 -53 -74 160 c-41 89 -77 163 -81
165 -4 2 -28 -89 -54 -203z"/>
<path d="M5865 1029 c-49 -14 -110 -73 -135 -131 -87 -201 132 -398 335 -301
31 15 35 21 35 55 0 21 -1 38 -2 38 -2 0 -25 -11 -52 -25 -137 -69 -266 13
-254 160 6 68 28 102 89 133 53 28 121 25 176 -8 19 -11 36 -20 39 -20 2 0 4
16 4 35 0 33 -4 38 -42 55 -46 21 -139 25 -193 9z"/>
<path d="M6240 819 c-58 -122 -107 -226 -109 -231 -2 -5 14 -8 35 -6 36 3 40
7 66 61 l28 57 92 0 93 0 19 -48 c11 -26 23 -53 29 -59 13 -17 81 -17 74 0
-23 57 -211 447 -216 447 -3 0 -53 -100 -111 -221z m143 18 c15 -34 27 -65 27
-69 0 -5 -27 -8 -61 -8 -45 0 -60 3 -56 13 4 6 16 38 29 69 13 32 25 58 28 58
3 0 17 -29 33 -63z"/>
<path d="M6620 811 l0 -231 30 0 c22 0 30 5 31 18 0 9 0 77 0 150 -1 72 3 132
7 132 4 0 48 -38 97 -85 50 -47 125 -117 168 -156 l77 -71 0 231 0 231 -35 0
-34 0 -3 -149 -3 -149 -140 134 c-77 74 -152 143 -167 155 l-28 20 0 -230z"/>
<path d="M7445 1025 c-51 -18 -120 -91 -134 -141 -50 -178 85 -334 267 -309
75 10 107 34 107 78 1 21 -2 36 -5 34 -3 -2 -27 -13 -54 -26 -91 -43 -193 -15
-230 63 -20 42 -21 128 -2 164 46 88 164 116 254 62 18 -11 35 -20 37 -20 3 0
5 16 5 35 0 33 -4 38 -42 55 -51 23 -145 26 -203 5z"/>
<path d="M7831 823 c-57 -120 -106 -224 -108 -230 -4 -9 6 -13 31 -13 34 0 37
3 66 60 l30 60 91 0 91 0 26 -60 c26 -58 28 -60 65 -60 21 0 37 4 35 9 -16 42
-214 451 -219 451 -3 0 -52 -98 -108 -217z m138 19 c13 -31 25 -63 28 -69 4
-10 -11 -13 -57 -13 -34 0 -60 3 -58 8 2 4 14 35 28 70 14 34 27 62 30 62 3 0
16 -26 29 -58z"/>
<path d="M3480 805 l0 -225 125 0 c124 0 125 0 131 24 10 41 -2 46 -97 46
l-90 0 3 73 3 72 88 1 c49 1 91 4 94 8 3 3 3 17 -1 31 -6 24 -8 25 -96 25
l-90 0 0 55 0 54 93 3 92 3 3 28 3 27 -130 0 -131 0 0 -225z"/>
<path d="M3772 1003 c3 -27 6 -28 66 -31 l62 -3 0 -194 0 -195 35 0 35 0 0
195 0 195 60 0 60 0 0 30 0 30 -161 0 -160 0 3 -27z"/>
<path d="M4530 805 l0 -225 120 0 120 0 0 35 0 35 -85 0 -85 0 0 190 0 190
-35 0 -35 0 0 -225z"/>
<path d="M5390 805 l0 -225 125 0 125 0 0 35 0 35 -90 0 -90 0 0 76 0 75 88
-2 87 -2 3 31 3 32 -90 0 -91 0 0 55 0 55 90 0 90 0 0 30 0 30 -125 0 -125 0
0 -225z"/>
<path d="M7140 805 l0 -225 35 0 35 0 0 225 0 225 -35 0 -35 0 0 -225z"/>
</g>
</svg>
