<?xml version="1.0" standalone="no"?>
<!DOCTYPE svg PUBLIC "-//W3C//DTD SVG 20010904//EN"
 "http://www.w3.org/TR/2001/REC-SVG-20010904/DTD/svg10.dtd">
<svg version="1.0" xmlns="http://www.w3.org/2000/svg"
 width="261.000000pt" height="469.000000pt" viewBox="0 0 261.000000 469.000000"
 preserveAspectRatio="xMidYMid meet">

<g transform="translate(0.000000,469.000000) scale(0.100000,-0.100000)"
fill="#000000" stroke="none">
<path d="M1747 4483 c-24 -4 -28 -8 -24 -26 3 -12 9 -52 12 -89 7 -67 7 -68
-16 -68 -19 0 -32 14 -62 71 -41 77 -40 76 -107 34 l-41 -26 37 -70 c32 -61
35 -72 23 -85 -13 -12 -22 -7 -74 41 -33 30 -62 51 -65 47 -3 -4 -21 -24 -40
-45 l-34 -37 54 -55 c46 -47 53 -58 43 -73 -6 -9 -15 -16 -20 -15 -4 0 -37 4
-73 8 l-66 7 -15 -65 -16 -65 69 -6 c67 -7 68 -8 68 -36 0 -35 -1 -36 -77 -44
l-61 -7 -7 31 c-4 16 -8 30 -9 30 -2 0 -29 -9 -61 -20 -84 -29 -95 -12 -30 45
l50 43 -34 36 -34 35 -51 -43 c-69 -59 -82 -51 -46 30 l29 64 -48 25 -49 24
-34 -64 c-18 -36 -36 -65 -40 -65 -5 0 -8 34 -8 75 l0 75 -60 0 -60 0 0 -70
c0 -91 -20 -95 -51 -10 -12 33 -25 60 -30 60 -16 0 -89 -32 -89 -40 0 -4 9
-32 19 -63 13 -37 16 -59 10 -63 -12 -7 -11 -7 -59 54 l-33 43 -38 -37 -38
-37 28 -36 c56 -73 53 -87 -17 -66 -58 18 -68 18 -75 3 -3 -7 -12 -30 -21 -50
l-16 -37 43 -11 c65 -17 66 -17 60 -39 -5 -18 -13 -21 -59 -21 l-54 0 0 -55 0
-55 55 0 c70 0 74 -21 10 -49 -25 -11 -45 -24 -45 -30 0 -5 9 -30 20 -55 l19
-46 50 30 c64 37 74 23 25 -36 l-37 -46 36 -35 35 -36 45 37 c68 56 82 44 41
-36 -8 -15 -14 -33 -14 -41 0 -17 88 -53 100 -41 4 5 15 30 25 57 26 69 45 62
45 -18 l0 -65 49 0 48 0 9 62 c6 45 14 64 25 66 12 2 19 -11 28 -52 7 -31 16
-58 20 -60 5 -4 88 28 98 37 1 2 -5 29 -13 61 -8 32 -13 61 -9 64 3 3 26 -14
50 -38 l45 -44 30 29 c16 16 30 33 30 38 0 5 -13 26 -30 47 -26 33 -38 60 -27
60 2 0 29 -9 60 -19 l57 -20 20 46 c11 25 18 49 15 53 -3 5 -25 16 -50 26 -66
25 -59 44 15 44 l60 0 0 45 c0 37 3 45 19 45 10 0 38 3 63 6 39 6 46 4 50 -13
4 -16 -7 -28 -53 -56 l-58 -37 32 -55 c18 -30 36 -55 40 -55 5 0 32 18 60 40
45 34 54 37 67 25 12 -13 9 -22 -29 -76 -24 -33 -39 -64 -35 -68 5 -4 28 -22
51 -39 l41 -32 48 55 c46 53 84 71 84 40 0 -8 -8 -43 -17 -76 -19 -70 -19 -71
61 -90 57 -14 57 -14 75 76 12 57 16 65 36 65 21 0 23 -5 30 -80 8 -89 6 -87
88 -74 l37 7 0 82 c0 67 3 84 16 89 23 9 29 3 59 -69 16 -36 32 -65 36 -65 15
0 109 54 109 63 0 4 -14 37 -30 74 -23 50 -27 69 -19 79 9 11 23 4 72 -37 l60
-50 38 43 37 43 -56 57 c-70 72 -64 86 29 66 35 -7 68 -13 73 -13 9 0 35 83
36 111 0 7 -29 20 -65 29 -56 16 -65 21 -65 41 0 21 6 23 70 30 l70 7 0 58 0
58 -82 3 c-108 4 -114 21 -29 73 34 21 61 42 61 47 0 8 -38 87 -46 96 -1 2
-34 -13 -73 -35 -66 -35 -71 -37 -87 -21 -16 15 -13 20 37 78 l54 62 -40 34
c-22 19 -43 34 -47 34 -3 0 -29 -27 -58 -60 -55 -63 -57 -65 -78 -51 -11 7 -9
23 11 87 14 44 22 82 19 85 -10 9 -113 42 -117 37 -2 -2 -17 -39 -33 -83 -38
-105 -57 -110 -67 -18 -11 113 -11 113 -59 112 -22 -1 -54 -4 -69 -6z m93
-118 c9 -67 16 -85 29 -86 9 0 27 -3 41 -5 24 -4 28 1 55 76 29 79 41 92 73
71 11 -7 9 -23 -11 -89 l-25 -80 42 -16 c50 -19 77 -20 73 -3 -1 6 4 11 11 9
8 -1 11 1 8 6 -3 5 7 20 22 33 20 18 23 19 12 4 -14 -18 -14 -19 2 -7 9 8 15
19 12 27 -8 20 16 29 32 13 13 -13 9 -21 -31 -66 -26 -29 -51 -50 -56 -46 -20
12 6 -29 39 -62 l35 -35 67 35 c37 20 70 33 74 29 17 -18 0 -41 -54 -75 l-59
-37 16 -45 17 -46 74 0 c70 0 73 -1 70 -22 -2 -16 -11 -24 -28 -26 -14 -1 -44
-5 -68 -8 l-43 -5 3 -52 3 -51 63 -19 c57 -16 62 -20 56 -40 -10 -32 -9 -32
-72 -19 -32 7 -63 12 -70 12 -11 0 -42 -50 -42 -69 0 -6 22 -31 50 -57 47 -46
48 -48 30 -61 -18 -12 -24 -11 -55 13 -19 14 -32 30 -29 35 3 5 2 9 -3 8 -4
-1 -16 1 -25 5 -19 8 -76 -29 -77 -50 -1 -6 10 -37 24 -68 31 -69 31 -70 2
-83 -21 -10 -25 -7 -52 54 l-29 65 -35 -7 c-68 -13 -71 -17 -71 -105 0 -73 -2
-80 -20 -80 -21 0 -23 5 -37 100 l-8 55 -52 3 c-29 2 -53 -1 -54 -5 -3 -27
-11 -73 -20 -106 -9 -34 -12 -37 -37 -31 -15 4 -28 7 -29 8 -1 1 6 35 17 76
11 41 18 75 17 75 -1 1 -20 10 -41 20 l-40 18 -48 -52 c-51 -53 -68 -60 -87
-38 -8 11 -3 25 24 63 20 27 40 48 46 46 6 -1 7 4 0 15 -17 32 -58 73 -71 73
-7 0 -34 -15 -61 -34 -48 -35 -52 -35 -73 1 -4 7 14 24 49 45 30 18 55 37 55
43 0 5 -8 26 -18 45 -17 34 -17 34 -79 31 -35 -1 -63 1 -63 6 0 4 -3 18 -6 31
-6 19 -2 22 22 22 16 0 45 3 65 6 36 6 37 7 44 67 8 71 3 77 -74 77 -44 0 -52
3 -47 16 3 9 6 22 6 30 0 12 13 14 74 8 71 -6 74 -6 87 17 6 13 18 29 25 36
10 10 1 23 -44 67 -49 47 -54 56 -43 70 7 9 17 16 20 16 4 0 28 -21 54 -46 50
-51 69 -53 116 -13 l25 20 -39 71 c-36 68 -37 72 -20 85 30 21 24 27 74 -70
26 -50 36 -53 100 -41 l32 7 -7 88 -7 89 31 0 30 0 12 -85z m-990 -275 c0 -38
4 -70 9 -70 5 0 22 -3 39 -6 29 -6 31 -3 59 54 25 50 32 58 46 50 13 -7 15
-14 7 -27 -20 -38 -50 -122 -41 -117 5 4 23 -2 39 -11 30 -17 31 -17 56 6 14
14 30 20 37 16 7 -5 10 -4 6 2 -8 13 18 36 34 31 6 -2 -10 -23 -36 -47 l-47
-43 19 -35 c16 -31 22 -34 48 -29 17 3 39 7 50 8 11 2 23 7 26 12 8 10 29 -1
29 -15 0 -5 -4 -9 -9 -9 -5 0 -30 -9 -54 -19 l-45 -20 10 -39 c10 -41 30 -52
94 -52 15 0 24 -6 24 -15 0 -11 -13 -15 -54 -15 l-54 0 -10 -41 -10 -41 49
-22 c45 -20 60 -38 41 -50 -11 -7 -53 4 -48 13 10 15 -64 4 -83 -13 -21 -19
-28 -46 -13 -46 5 0 20 -18 35 -40 36 -56 13 -64 -32 -11 l-37 43 -32 -19
c-35 -19 -34 -15 -17 -104 6 -28 4 -37 -8 -42 -12 -5 -20 7 -31 47 -11 38 -22
55 -36 59 -11 3 -20 1 -20 -5 0 -5 -4 -7 -9 -4 -24 15 -40 -8 -47 -65 -4 -40
-11 -59 -20 -59 -10 0 -14 16 -14 59 l0 59 -41 7 c-47 8 -51 6 -74 -57 -12
-32 -22 -45 -31 -41 -18 7 -17 31 1 63 23 40 18 63 -16 83 l-31 17 -41 -35
c-44 -38 -52 -41 -63 -24 -3 6 10 28 31 49 l37 38 -24 36 c-12 20 -27 36 -31
36 -4 0 -25 -9 -47 -20 -48 -24 -50 -25 -50 -2 0 13 13 23 40 32 41 14 47 27
34 76 -5 18 -16 23 -60 29 -69 8 -67 29 3 33 l49 3 13 49 c7 27 10 53 7 58 -3
6 -26 13 -51 16 -46 7 -51 11 -36 35 7 10 13 11 30 2 11 -7 21 -9 21 -7 0 3
12 1 27 -5 22 -8 30 -6 55 18 27 26 36 48 21 55 -5 2 -21 18 -36 37 -21 25
-25 37 -17 45 8 8 22 -1 50 -34 l39 -45 35 19 c20 11 36 22 36 26 0 4 -9 32
-19 63 -18 53 -19 57 -3 57 11 0 24 -18 37 -52 21 -53 21 -53 65 -53 l45 0 3
68 c3 59 5 67 22 67 18 0 20 -7 20 -70z m420 -304 c0 -25 -3 -28 -22 -22 -13
3 -35 6 -50 6 -43 0 -34 28 15 49 47 20 57 15 57 -33z"/>
<path d="M1807 4223 c-20 -23 -11 -70 15 -84 27 -15 65 -3 73 21 4 11 10 18
15 15 5 -3 3 6 -5 21 -24 47 -69 59 -98 27z m71 -41 c-4 -23 -44 -28 -52 -6
-3 9 -1 23 5 30 15 18 51 -1 47 -24z"/>
<path d="M1618 4149 c-29 -16 -24 -73 8 -89 22 -12 29 -12 52 1 22 12 27 22
25 49 -2 47 -41 65 -85 39z m52 -24 c16 -19 6 -45 -19 -45 -23 0 -35 28 -20
46 15 18 24 18 39 -1z"/>
<path d="M2028 4149 c-21 -12 -24 -69 -6 -87 15 -15 64 -16 73 -2 4 6 10 8 15
5 5 -3 12 0 16 6 4 8 3 9 -4 5 -16 -10 -15 16 1 33 10 11 10 13 0 7 -7 -4 -13
-3 -13 3 0 16 -30 41 -48 41 -9 0 -25 -5 -34 -11z m57 -44 c0 -22 -31 -33 -47
-17 -17 17 -1 44 24 40 15 -2 23 -10 23 -23z"/>
<path d="M1824 4009 c-92 -27 -123 -142 -58 -213 47 -50 113 -57 171 -19 53
35 69 121 33 180 -30 49 -87 70 -146 52z m97 -57 c49 -44 42 -120 -13 -148
-96 -50 -185 70 -109 147 39 38 80 39 122 1z"/>
<path d="M1526 3944 c-33 -33 -7 -94 41 -94 25 0 53 30 53 57 0 44 -63 69 -94
37z m62 -36 c-2 -15 -11 -24 -25 -26 -19 -3 -23 1 -23 22 0 21 5 26 26 26 21
0 25 -4 22 -22z"/>
<path d="M2118 3949 c-25 -14 -24 -75 1 -89 32 -17 60 -12 76 14 36 54 -20
108 -77 75z m57 -44 c0 -13 -8 -21 -22 -23 -19 -3 -23 1 -23 23 0 22 4 26 23
23 14 -2 22 -10 22 -23z"/>
<path d="M1623 3740 c-25 -10 -36 -39 -26 -66 9 -25 23 -34 54 -34 33 0 49 17
49 55 0 24 -6 35 -25 43 -14 7 -27 12 -28 11 -1 0 -12 -4 -24 -9z m46 -33 c15
-19 -9 -50 -32 -41 -17 6 -23 35 -10 47 10 11 30 8 42 -6z"/>
<path d="M2020 3729 c-17 -31 -8 -62 23 -77 53 -25 95 25 67 79 -15 27 -75 26
-90 -2z m58 -8 c19 -11 11 -45 -11 -49 -19 -4 -32 20 -23 43 6 17 15 19 34 6z"/>
<path d="M1815 3630 c-40 -45 20 -109 71 -75 26 17 33 62 12 83 -18 18 -63 14
-83 -8z m65 -16 c11 -12 11 -18 -2 -30 -18 -18 -48 -8 -48 16 0 16 11 27 31
29 4 1 12 -6 19 -15z"/>
<path d="M828 4003 c-23 -6 -33 -45 -18 -72 12 -24 52 -28 70 -7 27 33 -11 89
-52 79z m32 -48 c0 -8 -7 -15 -15 -15 -8 0 -15 7 -15 15 0 8 7 15 15 15 8 0
15 -7 15 -15z"/>
<path d="M652 3948 c-5 -7 -12 -24 -14 -38 -2 -19 3 -26 25 -34 33 -12 60 1
65 31 6 40 -52 70 -76 41z m48 -34 c0 -9 -7 -14 -17 -12 -25 5 -28 28 -4 28
12 0 21 -6 21 -16z"/>
<path d="M979 3907 c-31 -16 -35 -41 -10 -66 10 -10 16 -23 13 -26 -4 -4 7 0
25 9 39 19 46 30 38 56 -9 30 -37 41 -66 27z m37 -28 c10 -17 -13 -36 -27 -22
-12 12 -4 33 11 33 5 0 12 -5 16 -11z"/>
<path d="M768 3811 c-19 -11 -38 -18 -40 -16 -4 4 -6 -13 -9 -74 -6 -129 182
-150 207 -23 10 48 -19 105 -60 120 -44 16 -55 15 -98 -7z m102 -41 c11 -11
20 -33 20 -50 0 -65 -79 -94 -119 -44 -27 35 -26 59 4 89 29 30 68 32 95 5z"/>
<path d="M563 3803 c-18 -7 -16 -58 3 -73 22 -19 68 -1 72 28 6 41 -31 63 -75
45z m47 -39 c0 -14 -21 -19 -33 -7 -9 9 13 34 24 27 5 -3 9 -12 9 -20z"/>
<path d="M1011 3736 c-17 -20 -3 -66 23 -75 28 -11 41 -5 55 25 14 31 14 30
-5 48 -19 20 -58 21 -73 2z m59 -31 c0 -8 -9 -15 -20 -15 -11 0 -20 7 -20 15
0 8 9 15 20 15 11 0 20 -7 20 -15z"/>
<path d="M602 3628 c-31 -31 1 -95 42 -82 26 8 36 22 36 51 0 35 -53 56 -78
31z m48 -38 c0 -11 -7 -20 -15 -20 -8 0 -15 9 -15 20 0 11 7 20 15 20 8 0 15
-9 15 -20z"/>
<path d="M934 3592 c-18 -12 -24 -42 -14 -63 13 -23 53 -25 74 -3 20 19 20 24
0 52 -15 22 -40 28 -60 14z m46 -36 c0 -8 -4 -17 -8 -20 -13 -8 -35 11 -28 23
10 16 36 14 36 -3z"/>
<path d="M752 3528 c-30 -30 8 -85 51 -74 49 12 39 86 -11 86 -15 0 -33 -5
-40 -12z m53 -29 c0 -7 -8 -15 -17 -17 -18 -3 -25 18 -11 32 10 10 28 1 28
-15z"/>
<path d="M202 2273 l3 -938 528 -3 527 -2 0 940 0 940 -530 0 -530 0 2 -937z
m988 890 c-1 -5 -100 -81 -220 -170 l-220 -163 -240 166 c-132 91 -240 167
-240 170 0 2 207 4 460 4 253 0 460 -3 460 -7z m16 -60 c-8 -44 -8 -58 -1
-865 4 -556 3 -768 -5 -768 -8 0 -8 -6 0 -21 7 -11 8 -24 4 -27 -4 -4 -9 -1
-11 6 -3 6 -9 12 -14 12 -16 0 -69 43 -63 51 3 5 -3 6 -13 3 -17 -5 -17 -5 0
9 16 13 16 15 1 21 -8 3 -23 6 -32 5 -14 0 -13 -2 3 -9 13 -6 15 -9 5 -9 -18
-1 -42 13 -42 25 0 5 -4 8 -9 7 -13 -4 -11 11 4 27 6 8 2 6 -10 -3 -12 -11
-24 -14 -27 -9 -3 6 0 13 6 15 9 4 7 6 -3 6 -9 1 -20 15 -26 34 -5 17 -15 31
-22 29 -29 -6 -71 -9 -67 -4 3 3 -2 11 -12 19 -10 9 -11 11 -2 7 13 -7 13 -5
1 9 -7 9 -19 17 -25 17 -6 0 -5 -4 3 -9 8 -5 9 -11 3 -15 -12 -7 -68 38 -70
56 0 7 -1 255 -2 550 l-2 537 28 25 c18 15 31 20 33 13 2 -6 -1 -13 -6 -14
-23 -8 -47 -32 -40 -40 10 -9 70 54 63 66 -3 4 16 23 42 42 26 18 49 37 50 42
2 4 10 3 18 -4 12 -10 13 -8 8 7 -7 18 -6 18 16 -1 14 -12 20 -14 15 -5 -11
17 -16 45 -8 36 3 -3 12 2 19 12 12 16 13 16 10 0 -1 -10 -5 -20 -9 -24 -8 -8
1 -24 14 -24 5 0 7 10 5 23 -5 33 12 60 35 54 22 -6 35 8 18 19 -8 5 -9 3 -4
-6 5 -9 4 -11 -4 -6 -16 11 -3 26 16 19 10 -4 14 -2 10 4 -4 5 5 15 18 21 14
7 25 16 25 22 0 7 9 9 23 4 12 -3 19 -3 15 1 -4 5 -3 14 3 22 17 19 20 16 15
-14z m-227 -1568 l218 -150 -228 -3 c-125 -1 -333 -1 -462 0 l-235 3 236 152
c130 84 241 151 245 150 4 -1 106 -70 226 -152z m-25 94 c-3 -6 0 -15 7 -20 7
-4 10 -11 6 -15 -3 -4 -13 -2 -20 4 -8 7 -16 10 -19 7 -3 -3 -11 2 -19 12 -8
9 -9 14 -4 11 6 -3 19 -2 30 3 27 10 27 10 19 -2z"/>
<path d="M1130 3049 c0 -5 5 -7 10 -4 6 3 10 8 10 11 0 2 -4 4 -10 4 -5 0 -10
-5 -10 -11z"/>
<path d="M930 2910 c-8 -5 -12 -11 -10 -14 3 -2 14 2 24 10 22 15 10 19 -14 4z"/>
<path d="M920 2870 c-8 -5 -11 -12 -7 -16 4 -4 13 -2 19 4 15 15 7 24 -12 12z"/>
<path d="M831 2795 c-13 -14 -19 -25 -13 -25 5 0 15 7 22 15 7 9 20 13 28 10
12 -4 13 -3 2 10 -15 18 -10 19 -39 -10z"/>
<path d="M805 1719 c-3 -3 3 -13 13 -20 9 -7 14 -9 10 -5 -4 5 -3 14 2 21 7 8
5 12 -6 12 -8 0 -17 -4 -19 -8z"/>
<path d="M850 1715 c0 -2 6 -8 13 -14 10 -8 14 -7 14 2 0 8 -6 14 -14 14 -7 0
-13 -1 -13 -2z"/>
<path d="M1000 1640 c-8 -5 -11 -12 -7 -16 4 -4 15 0 24 9 18 18 8 23 -17 7z"/>
<path d="M1010 1600 c0 -5 5 -10 10 -10 6 0 10 5 10 10 0 6 -4 10 -10 10 -5 0
-10 -4 -10 -10z"/>
<path d="M1056 1556 c3 -9 13 -16 22 -16 8 0 13 1 11 3 -2 1 -12 9 -22 16 -15
12 -17 12 -11 -3z"/>
<path d="M1097 1559 c7 -7 15 -10 18 -7 3 3 -2 9 -12 12 -14 6 -15 5 -6 -5z"/>
<path d="M1160 1480 c-8 -5 -10 -10 -5 -10 6 0 17 5 25 10 8 5 11 10 5 10 -5
0 -17 -5 -25 -10z"/>
<path d="M1340 2237 l0 -974 -172 -6 c-95 -4 -352 -7 -570 -7 l-398 0 5 -378
c3 -207 8 -433 11 -501 l6 -124 1081 7 c594 3 1082 8 1083 9 1 1 0 665 -3
1475 l-6 1472 -519 0 -518 0 0 -973z m955 914 c-26 -26 -409 -291 -421 -291
-7 0 -39 17 -71 38 -32 22 -130 85 -218 142 -88 56 -164 106 -169 111 -6 5
180 9 439 9 283 0 445 -4 440 -9z m32 -1424 c0 -1164 -2 -1367 -14 -1367 -10
0 -12 6 -8 22 6 17 4 20 -10 14 -20 -7 -68 30 -59 46 3 5 1 7 -4 6 -16 -5 -83
62 -76 75 4 7 4 9 0 5 -9 -8 -14 -4 -106 81 -43 40 -66 69 -63 78 4 9 0 13 -8
11 -8 -2 -26 6 -39 17 l-25 20 -2 220 c-1 121 -5 569 -8 995 -3 426 -7 787 -8
803 -3 19 1 27 12 28 11 0 12 2 4 6 -37 14 4 73 46 67 19 -3 21 -2 13 9 -9 10
-1 20 38 43 27 16 50 32 50 36 0 4 7 4 17 1 10 -4 14 -2 10 4 -10 16 62 66 95
66 19 0 24 3 16 9 -11 6 -11 8 0 8 7 0 11 4 7 9 -3 6 5 15 17 22 13 6 33 20
45 31 l22 20 -5 -23 c-5 -23 -5 -23 8 -4 7 11 13 23 14 28 4 20 6 20 14 1 4
-11 8 -635 7 -1387z m-1837 -1212 c-120 -120 -221 -217 -223 -215 -3 3 -8 206
-11 452 l-7 446 230 -231 231 -232 -220 -220z m1072 193 c158 -1 285 -5 282
-10 -3 -4 0 -8 5 -8 6 0 11 5 11 10 0 21 22 7 87 -56 37 -36 75 -70 83 -75 11
-8 12 -11 2 -15 -13 -6 -7 -24 9 -24 6 0 7 4 4 10 -13 22 9 8 49 -29 22 -22
56 -53 73 -70 34 -31 37 -68 4 -56 -13 5 -14 4 -3 -6 9 -10 15 -10 24 -1 15
15 31 16 22 0 -5 -8 -1 -9 12 -4 12 5 16 4 9 -3 -5 -5 -23 -12 -40 -14 -19 -3
-13 -4 16 -4 33 0 52 -5 68 -20 l21 -20 -30 -1 c-30 -1 -41 12 -17 21 6 3 2 6
-10 6 -14 1 -21 -4 -18 -11 4 -10 -176 -13 -880 -13 -487 0 -885 -3 -885 -7 0
-4 -28 -7 -63 -5 -40 1 -64 6 -64 14 0 6 7 9 15 5 10 -3 13 -1 9 5 -9 15 61
73 79 66 8 -3 12 -8 10 -12 -3 -4 3 -7 12 -7 11 0 18 9 19 25 1 22 0 23 -9 8
-8 -14 -13 -16 -24 -6 -18 15 0 41 23 32 10 -4 14 -2 10 4 -4 6 4 20 18 31 13
11 22 21 20 24 -3 2 21 29 52 59 31 30 52 48 48 40 -5 -9 -3 -12 4 -10 7 3 12
9 12 14 0 14 30 45 43 45 6 0 2 -7 -8 -15 -11 -8 -15 -15 -10 -15 21 0 34 23
22 37 -7 9 -8 13 -1 11 6 -2 12 2 13 7 3 17 44 34 71 28 15 -3 30 0 33 6 4 7
1 9 -8 5 -8 -3 -23 -1 -33 5 -13 7 62 9 252 5 149 -2 399 -5 557 -6z"/>
<path d="M2250 3056 c-6 -8 -17 -14 -23 -12 -7 1 -9 1 -4 -1 4 -3 4 -10 0 -16
-3 -6 6 -2 20 9 15 10 27 22 27 27 0 11 -6 9 -20 -7z"/>
<path d="M2275 3030 c3 -5 8 -10 11 -10 2 0 4 5 4 10 0 6 -5 10 -11 10 -5 0
-7 -4 -4 -10z"/>
<path d="M2113 2973 c-7 -2 -13 -14 -12 -26 0 -22 0 -22 10 1 7 18 14 22 30
17 15 -5 19 -4 15 4 -7 11 -22 13 -43 4z"/>
<path d="M2125 2940 c3 -5 8 -10 11 -10 2 0 4 5 4 10 0 6 -5 10 -11 10 -5 0
-7 -4 -4 -10z"/>
<path d="M2035 2900 c-3 -5 -1 -10 4 -10 6 0 11 5 11 10 0 6 -2 10 -4 10 -3 0
-8 -4 -11 -10z"/>
<path d="M1986 2868 c3 -4 14 -8 25 -8 11 0 18 4 14 9 -3 6 -14 9 -25 8 -10
-1 -16 -5 -14 -9z"/>
<path d="M2293 2370 c0 -47 2 -66 4 -42 2 23 2 61 0 85 -2 23 -4 4 -4 -43z"/>
<path d="M1913 1690 c0 -25 2 -35 4 -22 2 12 2 32 0 45 -2 12 -4 2 -4 -23z"/>
<path d="M2313 930 c0 -47 2 -66 4 -42 2 23 2 61 0 85 -2 23 -4 4 -4 -43z"/>
<path d="M1930 750 c0 -5 5 -10 11 -10 5 0 7 5 4 10 -3 6 -8 10 -11 10 -2 0
-4 -4 -4 -10z"/>
<path d="M2000 681 c0 -5 14 -19 30 -31 17 -12 30 -17 30 -13 0 5 -13 19 -30
31 -16 13 -30 18 -30 13z"/>
<path d="M2058 673 c7 -3 16 -2 19 1 4 3 -2 6 -13 5 -11 0 -14 -3 -6 -6z"/>
<path d="M2120 602 c0 -6 6 -12 13 -15 6 -2 9 -8 5 -12 -4 -4 -15 -2 -24 6
-15 12 -17 12 -12 -1 6 -20 48 -26 48 -7 0 8 -7 20 -15 27 -9 8 -15 8 -15 2z"/>
<path d="M2230 523 c0 -5 -10 -15 -22 -21 -13 -6 -18 -11 -12 -11 16 -1 50 27
41 35 -4 4 -7 3 -7 -3z"/>
<path d="M2290 440 c0 -5 5 -10 11 -10 5 0 7 5 4 10 -3 6 -8 10 -11 10 -2 0
-4 -4 -4 -10z"/>
<path d="M2265 420 c10 -11 20 -18 23 -16 5 6 -23 36 -34 36 -4 0 1 -9 11 -20z"/>
<path d="M978 703 c12 -2 32 -2 45 0 12 2 2 4 -23 4 -25 0 -35 -2 -22 -4z"/>
<path d="M1788 693 c7 -3 16 -2 19 1 4 3 -2 6 -13 5 -11 0 -14 -3 -6 -6z"/>
<path d="M1870 681 c0 -25 6 -27 13 -6 4 8 2 17 -3 20 -6 4 -10 -3 -10 -14z"/>
<path d="M1924 616 c-1 -17 1 -23 3 -13 3 13 10 16 25 11 24 -7 17 11 -10 25
-14 8 -17 4 -18 -23z"/>
<path d="M1890 620 c0 -5 5 -10 11 -10 5 0 7 5 4 10 -3 6 -8 10 -11 10 -2 0
-4 -4 -4 -10z"/>
<path d="M597 566 c-3 -8 0 -20 8 -26 12 -10 13 -8 10 10 -6 29 -11 34 -18 16z"/>
<path d="M566 542 c-3 -5 1 -9 9 -9 8 0 12 4 9 9 -3 4 -7 8 -9 8 -2 0 -6 -4
-9 -8z"/>
<path d="M544 505 c-4 -8 -9 -13 -13 -11 -4 3 -7 -5 -7 -18 0 -15 6 -22 19
-22 17 0 17 1 1 13 -15 11 -13 17 6 15 3 0 6 8 6 19 0 23 -5 24 -12 4z"/>
<path d="M2085 490 c3 -5 8 -10 11 -10 2 0 4 5 4 10 0 6 -5 10 -11 10 -5 0 -7
-4 -4 -10z"/>
<path d="M2088 458 c5 -5 16 -8 23 -6 8 3 3 7 -10 11 -17 4 -21 3 -13 -5z"/>
<path d="M2157 425 c10 -13 22 -25 26 -25 4 0 0 11 -10 25 -10 13 -22 25 -26
25 -4 0 0 -11 10 -25z"/>
<path d="M401 371 c-8 -5 -9 -11 -3 -15 5 -3 12 1 16 9 6 17 6 18 -13 6z"/>
<path d="M518 353 c23 -2 61 -2 85 0 23 2 4 4 -43 4 -47 0 -66 -2 -42 -4z"/>
<path d="M895 353 c-165 -3 -208 -9 -184 -24 17 -11 293 -10 364 1 l50 7 -45
4 c-33 2 -23 4 40 9 l85 6 -80 0 c-44 0 -147 -2 -230 -3z m68 -20 c-46 -2
-120 -2 -165 0 -46 1 -9 3 82 3 91 0 128 -2 83 -3z"/>
<path d="M1318 353 c23 -2 61 -2 85 0 23 2 4 4 -43 4 -47 0 -66 -2 -42 -4z"/>
<path d="M2098 353 c12 -2 32 -2 45 0 12 2 2 4 -23 4 -25 0 -35 -2 -22 -4z"/>
<path d="M373 343 c4 -3 1 -13 -6 -22 -11 -14 -10 -14 6 -2 20 15 22 31 5 31
-6 0 -8 -3 -5 -7z"/>
<path d="M518 333 c23 -2 61 -2 85 0 23 2 4 4 -43 4 -47 0 -66 -2 -42 -4z"/>
<path d="M1228 333 c39 -2 105 -2 145 0 39 1 7 3 -73 3 -80 0 -112 -2 -72 -3z"/>
<path d="M2098 333 c12 -2 32 -2 45 0 12 2 2 4 -23 4 -25 0 -35 -2 -22 -4z"/>
<path d="M1618 323 c12 -2 32 -2 45 0 12 2 2 4 -23 4 -25 0 -35 -2 -22 -4z"/>
</g>
</svg>
